<svg width="28" height="28" viewBox="0 0 28 28" fill="none" xmlns="http://www.w3.org/2000/svg">
<path d="M16.3832 3.11456C15.0543 3.11456 13.7799 3.64244 12.8403 4.58208C11.9006 5.52172 11.3728 6.79613 11.3728 8.12498V10.9146H8.6915C8.55717 10.9146 8.44775 11.0229 8.44775 11.1583V14.8416C8.44775 14.976 8.55609 15.0854 8.6915 15.0854H11.3728V22.6416C11.3728 22.776 11.4811 22.8854 11.6165 22.8854H15.2998C15.4342 22.8854 15.5436 22.7771 15.5436 22.6416V15.0854H18.2487C18.3603 15.0854 18.4578 15.0096 18.4848 14.9012L19.4057 11.2179C19.4147 11.182 19.4155 11.1444 19.4078 11.1081C19.4002 11.0719 19.3844 11.0378 19.3616 11.0086C19.3389 10.9793 19.3097 10.9557 19.2764 10.9394C19.2431 10.9231 19.2066 10.9146 19.1695 10.9146H15.5436V8.12498C15.5436 8.01472 15.5653 7.90555 15.6075 7.80369C15.6497 7.70182 15.7115 7.60927 15.7895 7.5313C15.8675 7.45334 15.96 7.3915 16.0619 7.34931C16.1637 7.30711 16.2729 7.2854 16.3832 7.2854H19.1998C19.3342 7.2854 19.4436 7.17706 19.4436 7.04165V3.35831C19.4436 3.22398 19.3353 3.11456 19.1998 3.11456H16.3832Z" fill="#2BC38C"/>
</svg>
