<svg width="27" height="28" viewBox="0 0 27 28" fill="none" xmlns="http://www.w3.org/2000/svg">
<path d="M10.9375 17.5L16.6141 14L10.9375 10.5V17.5ZM23.5812 8.36498C23.7234 8.91331 23.8219 9.64831 23.8875 10.5816C23.9641 11.515 23.9969 12.32 23.9969 13.02L24.0625 14C24.0625 16.555 23.8875 18.4333 23.5812 19.635C23.3078 20.685 22.6734 21.3616 21.6891 21.6533C21.175 21.805 20.2344 21.91 18.7906 21.98C17.3688 22.0616 16.0672 22.0966 14.8641 22.0966L13.125 22.1666C8.54219 22.1666 5.6875 21.98 4.56094 21.6533C3.57656 21.3616 2.94219 20.685 2.66875 19.635C2.52656 19.0866 2.42813 18.3516 2.3625 17.4183C2.28594 16.485 2.25312 15.68 2.25312 14.98L2.1875 14C2.1875 11.445 2.3625 9.56665 2.66875 8.36498C2.94219 7.31498 3.57656 6.63831 4.56094 6.34665C5.075 6.19498 6.01563 6.08998 7.45938 6.01998C8.88125 5.93831 10.1828 5.90331 11.3859 5.90331L13.125 5.83331C17.7078 5.83331 20.5625 6.01998 21.6891 6.34665C22.6734 6.63831 23.3078 7.31498 23.5812 8.36498Z" fill="#2BC38C"/>
</svg>
