<svg width="140" height="54" viewBox="0 0 140 54" fill="none" xmlns="http://www.w3.org/2000/svg">
<path d="M49.2607 11.7599H54.4187V14.5996H54.7552C55.0137 14.092 55.3533 13.6293 55.761 13.2294C56.1832 12.8115 56.6556 12.4467 57.1677 12.1433C57.694 11.8284 58.2564 11.5769 58.8429 11.3943C59.4206 11.2061 60.0245 11.109 60.6326 11.1068C61.2624 11.0941 61.8907 11.173 62.4975 11.3411C62.967 11.4704 63.4128 11.6729 63.8183 11.9409L62.3507 16.8039C61.9975 16.6302 61.6252 16.498 61.2411 16.4099C60.752 16.3048 60.2524 16.256 59.752 16.2643C59.0423 16.2537 58.3395 16.4043 57.6975 16.7045C57.0869 16.9926 56.5498 17.4137 56.1261 17.9362C55.6791 18.4901 55.3382 19.1205 55.1203 19.7962C54.8749 20.5456 54.754 21.3297 54.7623 22.1176V32.1203H49.2607V11.7599Z" fill="white"/>
<path d="M68.132 9.0159C67.1944 9.01481 66.2948 8.64903 65.6263 7.99717C65.3065 7.67984 65.0502 7.30525 64.8711 6.89325C64.5085 6.01399 64.5085 5.02869 64.8711 4.14943C65.2341 3.31363 65.9105 2.65049 66.7575 2.3001C67.4101 2.02795 68.1295 1.95385 68.8246 2.08716C69.5197 2.22048 70.1594 2.55523 70.6626 3.04906C70.9923 3.37137 71.254 3.75544 71.4327 4.17894C71.6114 4.60244 71.7034 5.05694 71.7034 5.51601C71.7034 5.97508 71.6114 6.42959 71.4327 6.85309C71.254 7.2766 70.9923 7.66066 70.6626 7.98297C70.3351 8.31057 69.9445 8.56956 69.5141 8.74457C69.0837 8.91957 68.6222 9.007 68.157 9.0017L68.132 9.0159ZM65.4295 11.7455H70.9239V32.1201H65.4044L65.4295 11.7455Z" fill="white"/>
<path d="M84.8196 2.03031C85.5514 2.02472 86.2818 2.09371 86.9994 2.23618C87.6119 2.35932 88.2112 2.53998 88.7892 2.77571L87.2536 7.62799C86.9649 7.48727 86.6627 7.37549 86.3515 7.29433C85.9597 7.20438 85.5582 7.16265 85.156 7.17009C84.7974 7.15259 84.4392 7.21239 84.1062 7.34536C83.7731 7.47833 83.4731 7.68133 83.2267 7.94035C82.723 8.53379 82.4669 9.29564 82.5108 10.0701V11.7348H87.6294V16.3919H82.5144V32.1201H77.02V16.4167H73.3296V11.7597H77.02V9.75773C76.9998 8.6309 77.1916 7.51022 77.5855 6.45308C77.9353 5.53933 78.4883 4.71552 79.2034 4.04292C79.9163 3.38161 80.758 2.87186 81.6768 2.54499C82.685 2.18841 83.7492 2.01292 84.8196 2.02676" fill="white"/>
<path d="M101.886 29.9903H101.55C100.893 30.7804 100.106 31.4548 99.2229 31.9852C98.1561 32.5783 96.9442 32.8659 95.7222 32.8158C94.6992 32.8221 93.6833 32.6466 92.7226 32.2976C91.8248 31.9766 90.9938 31.4954 90.2707 30.8777C89.5732 30.267 89.0155 29.5155 88.6349 28.6735C88.2362 27.7796 88.036 26.8111 88.0479 25.8338C88.035 24.8518 88.2506 23.8801 88.6779 22.9941C89.0977 22.148 89.6987 21.403 90.439 20.8111C91.229 20.1823 92.1329 19.7088 93.1021 19.4162C94.1821 19.0909 95.3058 18.9305 96.4345 18.9405C97.5478 18.9171 98.6601 19.022 99.7491 19.2529C100.479 19.4169 101.197 19.6316 101.897 19.8953V19.2706C101.905 18.7546 101.791 18.2438 101.566 17.7786C101.34 17.3135 101.009 16.9068 100.597 16.5907C99.6851 15.8677 98.5432 15.4902 97.3759 15.5258C95.4669 15.5258 93.8597 16.3162 92.5544 17.8969L88.5598 15.1673C90.7384 12.4507 93.7153 11.0924 97.4905 11.0924C100.676 11.0924 103.108 11.8343 104.785 13.318C106.463 14.8017 107.298 16.9989 107.291 19.9095V32.1201H101.886V29.9903ZM101.886 23.878C101.247 23.5749 100.58 23.3313 99.8958 23.1503C99.1627 22.9643 98.4083 22.8736 97.6515 22.8805C96.3391 22.8805 95.3261 23.1645 94.6126 23.7324C94.2792 23.9731 94.008 24.2887 93.8214 24.6533C93.6347 25.018 93.5379 25.4213 93.5388 25.8302C93.5288 26.2218 93.6175 26.6097 93.7969 26.9586C93.9762 27.3076 94.2406 27.6066 94.5661 27.8286C95.2529 28.3265 96.085 28.5882 96.9356 28.5741C97.6263 28.581 98.3111 28.4469 98.9473 28.1801C99.534 27.9374 100.068 27.5842 100.519 27.14C101.391 26.275 101.882 25.1016 101.882 23.878" fill="white"/>
<path d="M115.888 2.36401H110.397V32.1343H115.888V2.36401Z" fill="white"/>
<path d="M125.786 31.137L117.149 11.7599H123.395L128.596 24.1089H128.889L133.879 11.7599H140L127.128 41.1184H121.215L125.786 31.137Z" fill="white"/>
<path d="M0 0V36.3334H18.3195L27.4829 27.2501L36.6426 18.1667V0H0ZM27.4829 18.1667H18.3231V27.2501H9.15976V9.08336H27.4829V18.1667Z" fill="#2BC38C"/>
<path d="M27.4841 27.2533L18.3208 36.3367V18.1664H36.6439L27.4841 27.2533Z" fill="#24A878"/>
<path d="M34.6947 36.4044C34.0873 36.4044 33.4935 36.2258 32.9884 35.8912C32.4834 35.5565 32.0898 35.0809 31.8573 34.5244C31.6249 33.9679 31.564 33.3555 31.6825 32.7647C31.801 32.174 32.0935 31.6313 32.523 31.2054C32.9526 30.7795 33.4998 30.4894 34.0955 30.3719C34.6913 30.2544 35.3088 30.3147 35.87 30.5452C36.4311 30.7757 36.9108 31.166 37.2483 31.6669C37.5857 32.1677 37.7658 32.7565 37.7658 33.3589C37.7649 34.1663 37.441 34.9404 36.8653 35.5114C36.2895 36.0823 35.5089 36.4035 34.6947 36.4044ZM34.6947 30.8032C34.1841 30.8032 33.685 30.9534 33.2605 31.2348C32.836 31.5161 32.5053 31.916 32.31 32.3839C32.1148 32.8517 32.0639 33.3665 32.1638 33.863C32.2636 34.3596 32.5098 34.8156 32.8711 35.1734C33.2324 35.5311 33.6925 35.7746 34.1934 35.8729C34.6943 35.9713 35.2133 35.9201 35.6848 35.7259C36.1563 35.5316 36.5591 35.203 36.8423 34.7817C37.1254 34.3604 37.2762 33.8652 37.2754 33.3589C37.2745 32.6808 37.0022 32.0307 36.5183 31.5515C36.0344 31.0723 35.3785 30.8032 34.6947 30.8032Z" fill="#2BC38C"/>
<path d="M33.9292 32.1201H34.7561C34.8611 32.1183 34.9656 32.1364 35.0639 32.1734C35.1527 32.2057 35.2343 32.2551 35.3037 32.3189C35.3713 32.3824 35.4239 32.46 35.4576 32.5461C35.4943 32.6363 35.5125 32.7328 35.5113 32.83C35.5114 32.9017 35.498 32.9727 35.4719 33.0395C35.4488 33.1045 35.4136 33.1647 35.3681 33.2169C35.3249 33.2722 35.2729 33.3201 35.2142 33.3589C35.1573 33.3998 35.0945 33.4321 35.0281 33.4548V33.4761L35.6366 34.3386V34.3635H35.1462L34.5556 33.5399H34.3587V34.3812H33.9292V32.1201ZM34.7525 33.1318C34.7964 33.1334 34.8402 33.1264 34.8813 33.1111C34.9225 33.0959 34.9602 33.0728 34.9923 33.043C35.0226 33.0149 35.0466 32.9808 35.0626 32.9429C35.0787 32.9049 35.0864 32.8641 35.0854 32.8229C35.0849 32.783 35.0776 32.7434 35.0639 32.7058C35.0502 32.6675 35.0284 32.6325 35 32.6031C34.9716 32.5737 34.9373 32.5507 34.8992 32.5354C34.8553 32.5161 34.8077 32.5064 34.7596 32.507H34.3587V33.1318H34.7525Z" fill="#2BC38C"/>
<path d="M49.792 51V42.996H55.456V44.46H51.496V46.2H55.372V47.664H51.496V51H49.792ZM59.2995 51.144C57.3915 51.144 56.2395 49.752 56.2395 48.096C56.2395 46.452 57.3915 45.06 59.2995 45.06C61.2195 45.06 62.3715 46.452 62.3715 48.096C62.3715 49.752 61.2195 51.144 59.2995 51.144ZM59.2995 49.788C60.2475 49.788 60.7875 49.008 60.7875 48.096C60.7875 47.196 60.2475 46.416 59.2995 46.416C58.3515 46.416 57.8235 47.196 57.8235 48.096C57.8235 49.008 58.3515 49.788 59.2995 49.788ZM63.5021 51V45.204H65.0261V45.996C65.4341 45.48 66.1541 45.072 66.8741 45.072V46.56C66.7661 46.536 66.6221 46.524 66.4541 46.524C65.9501 46.524 65.2781 46.8 65.0261 47.172V51H63.5021ZM72.4206 53.208H70.8966V45.204H72.4206V45.936C72.8646 45.372 73.5006 45.06 74.2086 45.06C75.6966 45.06 76.7766 46.164 76.7766 48.096C76.7766 50.028 75.6966 51.144 74.2086 51.144C73.5246 51.144 72.8886 50.856 72.4206 50.256V53.208ZM75.1926 48.096C75.1926 47.1 74.6046 46.416 73.7286 46.416C73.2366 46.416 72.6726 46.704 72.4206 47.076V49.128C72.6726 49.488 73.2366 49.788 73.7286 49.788C74.6046 49.788 75.1926 49.104 75.1926 48.096ZM80.6042 51.144C78.6962 51.144 77.5442 49.752 77.5442 48.096C77.5442 46.452 78.6962 45.06 80.6042 45.06C82.5242 45.06 83.6762 46.452 83.6762 48.096C83.6762 49.752 82.5242 51.144 80.6042 51.144ZM80.6042 49.788C81.5522 49.788 82.0922 49.008 82.0922 48.096C82.0922 47.196 81.5522 46.416 80.6042 46.416C79.6562 46.416 79.1282 47.196 79.1282 48.096C79.1282 49.008 79.6562 49.788 80.6042 49.788ZM88.7908 51V50.268C88.3348 50.832 87.6988 51.144 87.0028 51.144C85.5388 51.144 84.4348 50.04 84.4348 48.108C84.4348 46.212 85.5268 45.06 87.0028 45.06C87.6868 45.06 88.3348 45.36 88.7908 45.948V42.996H90.3268V51H88.7908ZM88.7908 49.128V47.076C88.5268 46.692 87.9868 46.416 87.4708 46.416C86.6068 46.416 86.0068 47.1 86.0068 48.108C86.0068 49.104 86.6068 49.788 87.4708 49.788C87.9868 49.788 88.5268 49.512 88.7908 49.128ZM91.466 48.096C91.466 46.32 92.75 45.06 94.538 45.06C95.726 45.06 96.446 45.576 96.83 46.116L95.834 47.04C95.558 46.644 95.138 46.416 94.61 46.416C93.686 46.416 93.038 47.088 93.038 48.096C93.038 49.104 93.686 49.788 94.61 49.788C95.138 49.788 95.558 49.548 95.834 49.164L96.83 50.088C96.446 50.628 95.726 51.144 94.538 51.144C92.75 51.144 91.466 49.884 91.466 48.096ZM101.306 51V50.4C100.91 50.868 100.226 51.144 99.4703 51.144C98.5463 51.144 97.4543 50.52 97.4543 49.224C97.4543 47.868 98.5463 47.376 99.4703 47.376C100.238 47.376 100.922 47.616 101.306 48.084V47.28C101.306 46.692 100.802 46.308 100.034 46.308C99.4103 46.308 98.8343 46.536 98.3423 46.992L97.7663 45.972C98.4743 45.348 99.3863 45.06 100.298 45.06C101.618 45.06 102.83 45.588 102.83 47.256V51H101.306ZM101.306 49.608V48.888C101.054 48.552 100.574 48.384 100.082 48.384C99.4823 48.384 98.9903 48.708 98.9903 49.26C98.9903 49.8 99.4823 50.112 100.082 50.112C100.574 50.112 101.054 49.944 101.306 49.608ZM103.838 50.244L104.498 49.176C104.918 49.572 105.782 49.968 106.502 49.968C107.162 49.968 107.474 49.74 107.474 49.38C107.474 48.972 106.97 48.828 106.31 48.696C105.314 48.504 104.03 48.264 104.03 46.884C104.03 45.912 104.882 45.06 106.406 45.06C107.39 45.06 108.17 45.396 108.734 45.852L108.134 46.896C107.786 46.524 107.126 46.224 106.418 46.224C105.866 46.224 105.506 46.428 105.506 46.764C105.506 47.124 105.962 47.256 106.61 47.388C107.606 47.58 108.938 47.844 108.938 49.284C108.938 50.352 108.038 51.144 106.43 51.144C105.422 51.144 104.45 50.808 103.838 50.244ZM112.005 51.144C110.937 51.144 110.361 50.592 110.361 49.56V46.536H109.401V45.204H110.361V43.62H111.897V45.204H113.073V46.536H111.897V49.152C111.897 49.512 112.089 49.788 112.425 49.788C112.653 49.788 112.869 49.704 112.953 49.62L113.277 50.772C113.049 50.976 112.641 51.144 112.005 51.144ZM113.743 48.096C113.743 46.416 114.979 45.06 116.743 45.06C118.471 45.06 119.647 46.356 119.647 48.252V48.588H115.339C115.435 49.32 116.023 49.932 117.007 49.932C117.547 49.932 118.183 49.716 118.555 49.356L119.227 50.34C118.639 50.88 117.739 51.144 116.839 51.144C115.075 51.144 113.743 49.956 113.743 48.096ZM116.743 46.272C115.795 46.272 115.387 46.98 115.315 47.556H118.171C118.135 47.004 117.751 46.272 116.743 46.272ZM120.748 51V45.204H122.272V45.996C122.68 45.48 123.4 45.072 124.12 45.072V46.56C124.012 46.536 123.868 46.524 123.7 46.524C123.196 46.524 122.524 46.8 122.272 47.172V51H120.748Z" fill="white"/>
</svg>
