<svg width="58" height="21" viewBox="0 0 58 21" fill="none" xmlns="http://www.w3.org/2000/svg">
<path d="M25.1406 8.70708L26.3566 8.50192C26.3699 8.66872 26.4367 8.81049 26.5601 8.92725C26.6818 9.04401 26.8603 9.10239 27.0922 9.10239C27.2673 9.10239 27.4024 9.0657 27.4975 8.99064C27.5926 8.91558 27.6393 8.82551 27.6393 8.71709C27.6393 8.53861 27.4858 8.41685 27.1772 8.35013L26.6401 8.23337C26.1631 8.13829 25.8112 7.96983 25.5843 7.72797C25.3575 7.48611 25.2457 7.19922 25.2457 6.86562C25.2457 6.45362 25.4175 6.10501 25.7594 5.81979C26.1014 5.53289 26.5301 5.39111 27.0455 5.39111C27.6543 5.39111 28.113 5.52956 28.4166 5.80644C28.7218 6.08333 28.8886 6.3869 28.9203 6.71383L27.7327 6.91899C27.7143 6.7572 27.6493 6.62709 27.5392 6.52535C27.4291 6.4236 27.2706 6.37356 27.0638 6.37356C26.9254 6.37356 26.8053 6.40859 26.7052 6.48031C26.6051 6.55203 26.5551 6.64377 26.5551 6.7572C26.5551 6.93567 26.6768 7.04576 26.922 7.08746L27.5442 7.20422C28.0162 7.29429 28.3732 7.46276 28.6184 7.71462C28.8636 7.96482 28.9853 8.26006 28.9853 8.60033C28.9853 9.01232 28.8219 9.36427 28.495 9.6595C28.168 9.95474 27.7093 10.1015 27.1189 10.1015C26.7736 10.1015 26.4667 10.0531 26.1998 9.95807C25.9329 9.863 25.7278 9.73957 25.5876 9.58611C25.4459 9.43432 25.3391 9.2842 25.2674 9.13408C25.1957 8.9873 25.154 8.84552 25.1406 8.70708Z" fill="white"/>
<path d="M30.9855 9.96808H29.5527V5.52455H30.9205V6.03496C31.0339 5.84481 31.2207 5.68968 31.4809 5.56959C31.7411 5.45116 32.0047 5.39111 32.2682 5.39111C32.9404 5.39111 33.4025 5.62296 33.6543 6.08833C33.9929 5.62296 34.4783 5.39111 35.1055 5.39111C35.5959 5.39111 36.0079 5.53289 36.3398 5.81645C36.6734 6.10001 36.8402 6.52535 36.8402 7.0908V9.96975H35.4541V7.3927C35.4541 7.17253 35.3907 6.99238 35.2656 6.85227C35.1405 6.71216 34.9537 6.64211 34.7102 6.64211C34.465 6.64211 34.2731 6.71717 34.1347 6.86562C33.9963 7.01407 33.9279 7.19421 33.9279 7.40271V9.96975H32.5134V7.3927C32.5134 7.17253 32.4484 6.99238 32.3199 6.85227C32.1915 6.71216 32.0047 6.64211 31.7595 6.64211C31.521 6.64211 31.3325 6.71717 31.194 6.86562C31.0556 7.01407 30.9872 7.19588 30.9872 7.41105V9.96808H30.9855Z" fill="white"/>
<path d="M37.397 8.74349C37.397 8.36819 37.5254 8.06462 37.7839 7.8361C38.0408 7.60592 38.3744 7.46247 38.7831 7.40242L39.8856 7.24063C40.1125 7.21061 40.2242 7.10886 40.2242 6.93706C40.2242 6.80028 40.1625 6.68519 40.0407 6.59345C39.919 6.50171 39.7505 6.45501 39.537 6.45501C39.2985 6.45501 39.1083 6.51839 38.9666 6.64682C38.8248 6.77526 38.748 6.92872 38.7364 7.10719L37.492 6.86533C37.5237 6.49504 37.7172 6.1581 38.0725 5.84953C38.4278 5.54261 38.9198 5.38916 39.547 5.38916C40.2576 5.38916 40.7797 5.55095 41.1166 5.87288C41.4535 6.1948 41.6203 6.60679 41.6203 7.10719V9.28058C41.6203 9.5608 41.6387 9.79099 41.677 9.96946H40.386C40.3543 9.85103 40.3393 9.68257 40.3393 9.46906C40.0691 9.88606 39.6287 10.0946 39.0199 10.0946C38.5229 10.0946 38.1292 9.96279 37.8373 9.69591C37.5421 9.4307 37.397 9.11211 37.397 8.74349ZM39.3669 9.11045C39.6121 9.11045 39.8156 9.04206 39.979 8.90528C40.1425 8.76851 40.2242 8.54166 40.2242 8.22641V8.02959L39.3385 8.16303C38.9866 8.2164 38.8114 8.38153 38.8114 8.65509C38.8114 8.78018 38.8565 8.88694 38.9482 8.97701C39.0383 9.06541 39.1784 9.11045 39.3669 9.11045Z" fill="white"/>
<path d="M45.4385 5.52441V6.86547C45.3067 6.83545 45.1549 6.82043 44.9865 6.82043C44.6662 6.82043 44.4027 6.91885 44.1992 7.11567C43.9957 7.31249 43.8923 7.61607 43.8923 8.02806V9.96793H42.4595V5.52441H43.8456V6.12321C43.959 5.89637 44.1308 5.7329 44.3643 5.63116C44.5962 5.52941 44.8297 5.47937 45.0615 5.47937C45.205 5.47937 45.3301 5.49438 45.4385 5.52441Z" fill="white"/>
<path d="M30.5053 12.2029C31.1942 12.2029 31.7696 12.4164 32.23 12.8451C32.6904 13.2737 32.9205 13.8208 32.9205 14.4864C32.9205 15.1519 32.6904 15.7007 32.23 16.131C31.7696 16.563 31.1942 16.7782 30.5053 16.7782C29.8214 16.7782 29.2476 16.5613 28.7839 16.1277C28.3202 15.694 28.0884 15.1469 28.0884 14.4864C28.0884 13.8258 28.3202 13.2804 28.7839 12.8501C29.2476 12.4181 29.8214 12.2029 30.5053 12.2029ZM30.5053 15.5622C30.7922 15.5622 31.034 15.4705 31.2325 15.2837C31.431 15.0985 31.5294 14.8316 31.5294 14.4847C31.5294 14.1377 31.4294 13.8725 31.2325 13.6907C31.034 13.5089 30.7922 13.4172 30.5053 13.4172C30.2251 13.4172 29.9832 13.5106 29.7814 13.6957C29.5796 13.8809 29.4795 14.1444 29.4795 14.4864C29.4795 14.8283 29.5796 15.0935 29.7814 15.2803C29.9832 15.4688 30.2251 15.5622 30.5053 15.5622Z" fill="white"/>
<path d="M36.3893 16.6485C36.3643 16.545 36.3526 16.3999 36.3526 16.2148C36.2425 16.3883 36.0757 16.52 35.8489 16.6101C35.6237 16.7002 35.3852 16.7452 35.135 16.7452C34.5979 16.7452 34.1759 16.5851 33.8673 16.2632C33.5587 15.9412 33.4053 15.5409 33.4053 15.0605V12.3334H34.7964V14.782C34.7964 15.0022 34.8581 15.1806 34.9832 15.3207C35.1083 15.4592 35.2901 15.5292 35.527 15.5292C35.7588 15.5292 35.944 15.4609 36.0807 15.3257C36.2175 15.1906 36.2859 15.0122 36.2859 14.792V12.3334H37.677V15.8762C37.677 16.1597 37.692 16.4183 37.722 16.6485H36.3893Z" fill="white"/>
<path d="M39.9409 14.1729V16.6482H38.5498V12.3331H39.8959V12.8285C40.011 12.6366 40.1894 12.4882 40.4313 12.3814C40.6715 12.2747 40.9184 12.2213 41.1685 12.2213C41.7123 12.2213 42.1226 12.3814 42.4045 12.7034C42.6848 13.0253 42.8249 13.4373 42.8249 13.941V16.6498H41.4338V14.1645C41.4338 13.9393 41.3704 13.7575 41.2469 13.6224C41.1218 13.4873 40.9367 13.4189 40.6932 13.4189C40.468 13.4189 40.2862 13.4907 40.1477 13.6324C40.0093 13.7725 39.9409 13.9544 39.9409 14.1729Z" fill="white"/>
<path d="M48.1141 10.3615V15.8742C48.1141 16.1344 48.1257 16.3929 48.1508 16.6464H46.8147C46.7897 16.508 46.778 16.3679 46.778 16.2294C46.6679 16.3796 46.5045 16.503 46.2876 16.5981C46.0708 16.6931 45.8289 16.7415 45.5604 16.7415C44.9132 16.7415 44.3761 16.528 43.9491 16.1027C43.5221 15.6773 43.3086 15.1352 43.3086 14.4747C43.3086 13.8259 43.5154 13.2888 43.9308 12.8634C44.3461 12.4381 44.8732 12.2246 45.5137 12.2246C46.1358 12.2246 46.5445 12.3714 46.7397 12.6666V10.3615H48.1141ZM45.0066 13.6958C44.8081 13.8809 44.7097 14.1445 44.7097 14.4864C44.7097 14.8283 44.8081 15.0935 45.0066 15.2804C45.2051 15.4688 45.447 15.5622 45.7339 15.5622C46.0207 15.5622 46.2626 15.4688 46.4611 15.2804C46.6596 15.0919 46.758 14.8267 46.758 14.4864C46.758 14.1445 46.6579 13.8809 46.4611 13.6958C46.2626 13.5106 46.0207 13.4172 45.7339 13.4172C45.447 13.4189 45.2051 13.5106 45.0066 13.6958Z" fill="white"/>
<path d="M51.9038 12.3333V13.636C51.7754 13.6077 51.6286 13.5927 51.4651 13.5927C51.1532 13.5927 50.8997 13.6877 50.7012 13.8796C50.5027 14.0714 50.4043 14.3666 50.4043 14.7653V16.6501H49.0132V12.3333H50.3593V12.9155C50.4693 12.6953 50.6361 12.5368 50.863 12.4384C51.0882 12.34 51.315 12.2916 51.5402 12.2916C51.677 12.29 51.7987 12.305 51.9038 12.3333Z" fill="white"/>
<path d="M54.3924 18.3064H52.9279L53.962 16.0663L52.0488 12.3334H53.6051L54.7126 14.6435L55.7201 12.3334H57.1929L54.3924 18.3064Z" fill="white"/>
<path d="M27.2974 11.551C27.4158 11.4643 27.5543 11.4209 27.7144 11.4209C27.8662 11.4209 28.0046 11.4359 28.1264 11.4643V10.3884C27.993 10.325 27.7728 10.2933 27.4675 10.2933C26.9238 10.2933 26.4984 10.4451 26.1915 10.7487C25.8829 11.0523 25.7295 11.4559 25.7295 11.9597V12.3333V13.4442V14.7502V16.6484H27.1206V13.4442H28.1097V12.3333H27.1206V12.003C27.1189 11.7895 27.1773 11.6394 27.2974 11.551Z" fill="white"/>
<path d="M48.1503 6.71358V5.5243H47.2362V4.22827H45.9536H45.8218V5.25742V5.28411V7.62263V8.61675C45.8218 9.05877 45.9619 9.40738 46.2404 9.66258C46.5207 9.91946 46.9026 10.0479 47.3864 10.0479C47.7066 10.0479 47.9551 10.0062 48.1319 9.92279V8.79523C47.9935 8.82525 47.8684 8.84026 47.755 8.84026C47.4097 8.84026 47.2362 8.68514 47.2362 8.3749V6.71191H48.1503V6.71358Z" fill="white"/>
<path d="M10.5 0C4.70207 0 0 4.70207 0 10.5C0 16.2979 4.70207 21 10.5 21C16.2979 21 21 16.2979 21 10.5C21 4.70207 16.2996 0 10.5 0ZM14.6233 13.8026C14.4865 13.7909 14.3497 13.7826 14.2096 13.7826C11.706 13.7826 9.67601 15.8059 9.66267 18.3062H6.3784C6.39174 13.9928 9.89285 10.5 14.2096 10.5C14.3481 10.5 14.4865 10.5033 14.6233 10.5117V13.8026ZM14.6233 5.99643C14.4865 5.98475 14.3497 5.97641 14.2096 5.97641C11.706 5.97641 9.67601 7.99968 9.66267 10.5H6.3784C6.39174 6.18658 9.89285 2.6938 14.2096 2.6938C14.3481 2.6938 14.4865 2.69714 14.6233 2.70548V5.99643Z" fill="white"/>
</svg>
